<svg width="33.465668" height="33.465637" viewBox="0 0 33.4657 33.4656" fill="none" xmlns="http://www.w3.org/2000/svg" xmlns:xlink="http://www.w3.org/1999/xlink">
	<desc>
			Created with Pixso.
	</desc>
	<g clip-path="url(#clip2_38)">
		<path d="M22.9871 0.697205C28.0317 0.697205 31.4204 4.1517 31.4204 9.29257L31.4204 24.0476C31.4204 29.2334 28.136 32.6061 23.0529 32.6382L10.7094 32.643C5.66483 32.643 2.27451 29.1885 2.27451 24.0476L2.27451 9.29257C2.27451 4.10516 5.55893 0.7341 10.642 0.703613L22.9855 0.697205L22.9871 0.697205ZM22.9871 3.10397L10.6501 3.11038C6.91476 3.13284 4.68124 5.44333 4.68124 9.29257L4.68124 24.0476C4.68124 27.9225 6.93558 30.2362 10.7079 30.2362L23.0449 30.2314C26.7801 30.2089 29.0136 27.8952 29.0136 24.0476L29.0136 9.29257C29.0136 5.41766 26.7609 3.10397 22.9871 3.10397ZM22.6776 22.3159C23.3419 22.3159 23.881 22.8549 23.881 23.5193C23.881 24.1835 23.3419 24.7226 22.6776 24.7226L11.093 24.7226C10.4288 24.7226 9.88968 24.1835 9.88968 23.5193C9.88968 22.8549 10.4288 22.3159 11.093 22.3159L22.6776 22.3159ZM22.6776 15.5986C23.3419 15.5986 23.881 16.1377 23.881 16.802C23.881 17.4662 23.3419 18.0054 22.6776 18.0054L11.093 18.0054C10.4288 18.0054 9.88968 17.4662 9.88968 16.802C9.88968 16.1377 10.4288 15.5986 11.093 15.5986L22.6776 15.5986ZM15.513 8.89691C16.1772 8.89691 16.7164 9.436 16.7164 10.1003C16.7164 10.7645 16.1772 11.3036 15.513 11.3036L11.0926 11.3036C10.4283 11.3036 9.88919 10.7645 9.88919 10.1003C9.88919 9.436 10.4283 8.89691 11.0926 8.89691L15.513 8.89691Z" fill="#000000"/>
		<path d="M22.987 0.348572C25.5913 0.348572 27.7932 1.24194 29.3443 2.82291C30.8947 4.40326 31.769 6.64417 31.769 9.29254L31.769 24.0475C31.769 26.715 30.9229 28.9474 29.3925 30.5187C27.8613 32.0907 25.6753 32.9702 23.055 32.9867L23.053 32.9867L10.7096 32.9915C8.10526 32.9915 5.90286 32.0981 4.35141 30.5172C2.80051 28.9369 1.92587 26.696 1.92587 24.0475L1.92587 9.29254C1.92587 6.62439 2.77188 4.39194 4.3024 2.82095C5.83359 1.2493 8.01974 0.370697 10.6399 0.355011L10.6418 0.35498L22.987 0.348572ZM22.987 1.04578L10.6441 1.05219C10.6437 1.05219 10.6435 1.05219 10.6431 1.05219C8.18063 1.06717 6.18338 1.88934 4.80179 3.3075C3.41928 4.7265 2.62308 6.77328 2.62308 9.29254L2.62308 24.0475C2.62308 26.54 3.44357 28.5968 4.84903 30.0289C6.25381 31.4604 8.26889 32.2943 10.7093 32.2943C10.7093 32.2943 10.7092 32.2943 10.7093 32.2943L23.0506 32.2895C23.0509 32.2895 23.0512 32.2895 23.0514 32.2895C25.5139 32.2738 27.5113 31.4508 28.893 30.0323C30.2756 28.6128 31.0717 26.566 31.0717 24.0475L31.0717 9.29254C31.0717 6.80002 30.2516 4.74326 28.8466 3.31116C27.4422 1.87964 25.4275 1.04578 22.987 1.04578ZM22.987 2.75534C24.9461 2.75534 26.5509 3.35751 27.6653 4.50195C28.7785 5.64517 29.3622 7.28818 29.3622 9.29254L29.3622 24.0475C29.3622 26.0382 28.7834 27.6737 27.6808 28.816C26.5769 29.9596 24.9872 30.5683 23.0469 30.5799L23.045 30.58L10.7079 30.5848C8.74966 30.5848 7.14474 29.9825 6.03018 28.8382C4.91678 27.6949 4.33261 26.052 4.33261 24.0475L4.33261 9.29254C4.33261 7.30112 4.91141 5.66599 6.01413 4.52423C7.11807 3.38123 8.70773 2.77344 10.6479 2.76175L10.6498 2.76175L22.987 2.75534ZM22.987 3.45255C22.987 3.45255 22.9871 3.45255 22.987 3.45255L10.6521 3.45895C10.6518 3.45895 10.6515 3.45895 10.6511 3.45895C8.85648 3.46994 7.46213 4.02859 6.51566 5.00858C5.56778 5.98999 5.02982 7.43472 5.02982 9.29254L5.02982 24.0475C5.02982 25.9181 5.57285 27.3694 6.52963 28.3517C7.48526 29.3329 8.89377 29.8875 10.7077 29.8876C10.7077 29.8876 10.7076 29.8876 10.7077 29.8876L23.0428 29.8828C23.043 29.8828 23.0432 29.8828 23.0435 29.8828C24.8382 29.8718 26.2326 29.3124 27.1791 28.3318C28.1271 27.3497 28.6649 25.9045 28.6649 24.0475L28.6649 9.29254C28.6649 7.42197 28.1223 5.97067 27.1658 4.98834C26.2104 4.00723 24.8018 3.45258 22.987 3.45255ZM11.0925 9.24548C10.6208 9.24548 10.2378 9.62845 10.2378 10.1003C10.2378 10.572 10.6208 10.955 11.0925 10.955L15.513 10.955C15.9847 10.955 16.3678 10.572 16.3678 10.1003C16.3678 9.62845 15.9847 9.24548 15.513 9.24548L11.0925 9.24548ZM9.54056 10.1003C9.54056 9.24347 10.2357 8.54828 11.0925 8.54828L15.513 8.54828C16.3698 8.54828 17.0649 9.24347 17.0649 10.1003C17.0649 10.957 16.3698 11.6522 15.513 11.6522L11.0925 11.6522C10.2357 11.6522 9.54056 10.957 9.54056 10.1003ZM11.093 15.9472C10.6212 15.9472 10.2383 16.3302 10.2383 16.802C10.2383 17.2737 10.6212 17.6567 11.093 17.6567L22.6776 17.6567C23.1493 17.6567 23.5323 17.2737 23.5323 16.802C23.5323 16.3302 23.1493 15.9472 22.6776 15.9472L11.093 15.9472ZM9.54105 16.802C9.54105 15.9452 10.2362 15.25 11.093 15.25L22.6776 15.25C23.5343 15.25 24.2295 15.9452 24.2295 16.802C24.2295 17.6588 23.5343 18.3539 22.6776 18.3539L11.093 18.3539C10.2362 18.3539 9.54105 17.6588 9.54105 16.802ZM11.093 22.6644C10.6212 22.6644 10.2383 23.0475 10.2383 23.5192C10.2383 23.9909 10.6212 24.374 11.093 24.374L22.6776 24.374C23.1493 24.374 23.5323 23.9909 23.5323 23.5192C23.5323 23.0475 23.1493 22.6644 22.6776 22.6644L11.093 22.6644ZM9.54105 23.5192C9.54105 22.6624 10.2362 21.9673 11.093 21.9673L22.6776 21.9673C23.5343 21.9673 24.2295 22.6624 24.2295 23.5192C24.2295 24.376 23.5343 25.0712 22.6776 25.0712L11.093 25.0712C10.2362 25.0712 9.54105 24.376 9.54105 23.5192Z" fill="#000000"/>
		<path d="M29.3443 2.82291C30.8947 4.40326 31.769 6.64417 31.769 9.29254L31.769 24.0475C31.769 26.715 30.9229 28.9474 29.3925 30.5187C27.8613 32.0908 25.6753 32.9702 23.055 32.9867L23.053 32.9867L10.7096 32.9915C8.10526 32.9915 5.90286 32.0981 4.35141 30.5172C2.80051 28.9369 1.92587 26.696 1.92587 24.0475L1.92587 9.29254C1.92587 6.62439 2.77188 4.39194 4.3024 2.82095C5.83359 1.2493 8.01974 0.370697 10.6399 0.355011L10.6418 0.35498L22.987 0.348572C25.5913 0.348572 27.7932 1.24194 29.3443 2.82291ZM10.6441 1.05219C10.6437 1.05219 10.6435 1.05219 10.6431 1.05219C8.18063 1.06717 6.18338 1.88934 4.80179 3.3075C3.41928 4.7265 2.62308 6.77328 2.62308 9.29254L2.62308 24.0475C2.62308 26.54 3.44357 28.5968 4.84903 30.0289C6.25381 31.4604 8.26889 32.2943 10.7093 32.2943C10.7093 32.2943 10.7092 32.2943 10.7093 32.2943L23.0506 32.2895C23.0509 32.2895 23.0512 32.2895 23.0514 32.2895C25.5139 32.2738 27.5113 31.4509 28.893 30.0323C30.2756 28.6128 31.0718 26.566 31.0718 24.0475L31.0718 9.29254C31.0718 6.80002 30.2516 4.74326 28.8466 3.31116C27.4422 1.87964 25.4275 1.04578 22.987 1.04578L10.6441 1.05219ZM27.6653 4.50195C28.7785 5.64517 29.3622 7.28818 29.3622 9.29254L29.3622 24.0475C29.3622 26.0382 28.7834 27.6737 27.6808 28.816C26.5769 29.9596 24.9872 30.5683 23.0469 30.5799L23.045 30.58L10.7079 30.5848C8.74966 30.5848 7.14474 29.9825 6.03018 28.8382C4.91678 27.6949 4.33261 26.052 4.33261 24.0475L4.33261 9.29254C4.33261 7.30112 4.91141 5.66599 6.01413 4.52423C7.11807 3.38123 8.70773 2.77344 10.6479 2.76175L10.6498 2.76175L22.987 2.75534C24.9461 2.75534 26.5509 3.35751 27.6653 4.50195ZM22.987 3.45255L10.6521 3.45895C10.6518 3.45895 10.6515 3.45895 10.6511 3.45895C8.85648 3.46994 7.46213 4.02859 6.51566 5.00858C5.56778 5.98999 5.02982 7.43472 5.02982 9.29254L5.02982 24.0475C5.02982 25.9181 5.57285 27.3694 6.52963 28.3517C7.48526 29.3329 8.89377 29.8875 10.7077 29.8876C10.7077 29.8876 10.7076 29.8876 10.7077 29.8876L23.0428 29.8828C23.043 29.8828 23.0432 29.8828 23.0435 29.8828C24.8382 29.8718 26.2326 29.3124 27.1791 28.3318C28.1271 27.3497 28.6649 25.9045 28.6649 24.0475L28.6649 9.29254C28.6649 7.42197 28.1223 5.97067 27.1658 4.98834C26.2104 4.00723 24.8018 3.45258 22.987 3.45255C22.987 3.45255 22.9871 3.45255 22.987 3.45255ZM10.2378 10.1003C10.2378 10.572 10.6208 10.955 11.0925 10.955L15.513 10.955C15.9847 10.955 16.3678 10.572 16.3678 10.1003C16.3678 9.62845 15.9847 9.24548 15.513 9.24548L11.0925 9.24548C10.6208 9.24548 10.2378 9.62845 10.2378 10.1003ZM11.0925 8.54828L15.513 8.54828C16.3698 8.54828 17.065 9.24347 17.065 10.1003C17.065 10.957 16.3698 11.6522 15.513 11.6522L11.0925 11.6522C10.2357 11.6522 9.54056 10.957 9.54056 10.1003C9.54056 9.24347 10.2357 8.54828 11.0925 8.54828ZM10.2383 16.802C10.2383 17.2737 10.6212 17.6567 11.093 17.6567L22.6776 17.6567C23.1493 17.6567 23.5323 17.2737 23.5323 16.802C23.5323 16.3302 23.1493 15.9472 22.6776 15.9472L11.093 15.9472C10.6212 15.9472 10.2383 16.3302 10.2383 16.802ZM11.093 15.25L22.6776 15.25C23.5343 15.25 24.2295 15.9452 24.2295 16.802C24.2295 17.6588 23.5343 18.3539 22.6776 18.3539L11.093 18.3539C10.2362 18.3539 9.54105 17.6588 9.54105 16.802C9.54105 15.9452 10.2362 15.25 11.093 15.25ZM10.2383 23.5192C10.2383 23.9909 10.6212 24.374 11.093 24.374L22.6776 24.374C23.1493 24.374 23.5323 23.9909 23.5323 23.5192C23.5323 23.0475 23.1493 22.6645 22.6776 22.6645L11.093 22.6645C10.6212 22.6645 10.2383 23.0475 10.2383 23.5192ZM11.093 21.9673L22.6776 21.9673C23.5343 21.9673 24.2295 22.6624 24.2295 23.5192C24.2295 24.376 23.5343 25.0712 22.6776 25.0712L11.093 25.0712C10.2362 25.0712 9.54105 24.376 9.54105 23.5192C9.54105 22.6624 10.2362 21.9673 11.093 21.9673Z" stroke="#000000" stroke-width="0.000000"/>
	</g>
	<defs>
		<clipPath id="clip2_38">
			<rect width="33.465649" height="33.465652" fill="white"/>
		</clipPath>
	</defs>
</svg>
