<svg width="30.613525" height="32.078888" viewBox="0 0 30.6135 32.0789" fill="none" xmlns="http://www.w3.org/2000/svg" xmlns:xlink="http://www.w3.org/1999/xlink">
	<desc>
			Created with Pixso.
	</desc>
	<path d="M11.9536 1.89621C11.9533 1.89642 11.953 1.89664 11.9527 1.89688L2.41989 9.54797C1.35733 10.3526 0.742859 11.5723 0.728882 12.908L0.728882 25.6093C0.728882 28.7712 3.32394 31.35 6.52063 31.35L9.32541 31.35C10.6331 31.35 11.7108 30.3623 11.8481 29.1034L11.8519 29.0687L11.8622 29.0354C11.8809 28.9747 11.8911 28.9063 11.8911 28.8295L11.8911 24.3599C11.8911 23.6209 12.5028 23.0242 13.2361 23.0202L13.2381 23.0202L17.4453 23.0202C18.1884 23.0202 18.8069 23.613 18.8069 24.3599L18.8069 28.8441C18.8069 30.2122 19.8817 31.3146 21.2925 31.35L24.0928 31.35C27.2896 31.35 29.8846 28.7712 29.8846 25.6093L29.8846 12.8781C29.8664 11.559 29.2514 10.3416 28.2146 9.55154L28.2082 9.54666L18.614 1.89392C18.6138 1.8938 18.6142 1.89407 18.614 1.89392C16.6538 0.34082 13.9187 0.340057 11.9536 1.89621ZM11.5001 1.32556C13.7303 -0.441223 16.8406 -0.441498 19.0668 1.32266L19.0676 1.32339L28.6597 8.97433C29.8741 9.90118 30.593 11.3289 30.6134 12.8707L30.6135 12.8755L30.6134 25.6093C30.6134 29.1794 27.6864 32.0789 24.0928 32.0789L21.2794 32.0789C19.4792 32.0364 18.078 30.6176 18.078 28.8441L18.078 24.3599C18.078 24.031 17.8013 23.7491 17.4453 23.7491L13.2392 23.7491C12.8971 23.7514 12.62 24.0322 12.62 24.3599L12.62 28.8295C12.62 28.9593 12.6042 29.0888 12.5689 29.2153C12.3764 30.827 10.9949 32.0789 9.32541 32.0789L6.52063 32.0789C2.92703 32.0789 0 29.1794 0 25.6093L0 12.9025C0.015686 11.3425 0.734985 9.91138 1.97562 8.96994L11.5001 1.32556ZM12.8633 3.03546C14.29 1.90591 16.2821 1.90546 17.7051 3.03259L17.7061 3.03336L27.3145 10.6962C28.0072 11.2275 28.415 12.0301 28.4268 12.8865L28.4268 12.8915L28.4268 25.6093C28.4268 27.9754 26.4792 29.8922 24.0928 29.8922L21.306 29.8922C20.7314 29.8792 20.2646 29.4249 20.2646 28.8441L20.2646 24.3599C20.2646 22.8201 19.0016 21.5624 17.4453 21.5624L13.2321 21.5624C11.6884 21.5735 10.4333 22.8298 10.4333 24.3599L10.4333 28.6195L10.425 28.6579C10.4125 28.7153 10.4056 28.7737 10.4056 28.8295C10.4056 29.4239 9.91342 29.8922 9.32541 29.8922L6.52063 29.8922C4.13419 29.8922 2.18668 27.9754 2.18668 25.6093L2.18668 12.9128C2.19507 12.0414 2.60403 11.2386 3.31943 10.6932L12.8614 3.03696L12.8633 3.03546ZM13.3165 3.60626C13.3163 3.60648 13.3159 3.60672 13.3157 3.60693L3.76443 11.2707C3.22034 11.6841 2.92224 12.2787 2.91556 12.9182L2.91556 25.6093C2.91556 27.5641 4.52795 29.1633 6.52063 29.1633L9.32541 29.1633C9.52762 29.1633 9.67676 29.0048 9.67676 28.8295C9.67676 28.731 9.68701 28.6346 9.70444 28.5435L9.70444 24.3599C9.70444 22.4238 11.2885 20.8465 13.2284 20.8336L13.2308 20.8336L17.4453 20.8336C19.3994 20.8336 20.9935 22.4128 20.9935 24.3599L20.9935 28.8441C20.9935 29.0115 21.1258 29.1573 21.319 29.1633L24.0928 29.1633C26.0855 29.1633 27.6979 27.5641 27.6979 25.6093L27.6979 12.8942C27.6885 12.2659 27.3891 11.671 26.8685 11.2727L26.8627 11.2683L17.2526 3.60397C17.2524 3.60385 17.2527 3.6041 17.2526 3.60397C16.0956 2.6879 14.4785 2.68698 13.3165 3.60626Z" fill="#000000"/>
	<defs/>
</svg>
