<svg width="27.414246" height="32.463104" viewBox="0 0 27.4142 32.4631" fill="none" xmlns="http://www.w3.org/2000/svg" xmlns:xlink="http://www.w3.org/1999/xlink">
	<desc>
			Created with Pixso.
	</desc>
	<path d="M13.7088 0.697205C8.94299 0.697205 5.09943 4.36667 5.09943 8.83264L5.09937 8.83389C5.08331 13.2918 8.90179 16.962 13.6554 16.9761C13.6555 16.9761 13.6553 16.9761 13.6554 16.9761L13.7088 16.9761C18.4727 16.9761 22.3148 13.3084 22.3148 8.83746C22.3148 4.36639 18.4727 0.697205 13.7088 0.697205ZM4.40222 8.83203C4.40259 3.9462 8.59418 0 13.7088 0C18.8222 0 23.012 3.94678 23.012 8.83746C23.012 13.7282 18.8221 17.6733 13.7088 17.6733L13.6548 17.6733L13.6538 17.6733C8.55084 17.6584 4.38501 13.7098 4.40222 8.83203ZM6.81079 8.83682C6.8111 5.20441 9.92328 2.28287 13.7088 2.28287C17.4931 2.28287 20.6035 5.2049 20.6035 8.83746C20.6035 12.3562 17.6823 15.2108 14.0574 15.3838L14.0574 16.1848C14.0574 16.3745 13.9058 16.5293 13.7162 16.5334C13.5267 16.5374 13.3687 16.3893 13.3605 16.1998L13.3256 15.3833C9.70789 15.205 6.79901 12.3508 6.81079 8.83682ZM13.6843 14.6957C13.6924 14.6951 13.7006 14.6949 13.7088 14.6949C17.1435 14.6949 19.9062 12.0488 19.9062 8.83746C19.9062 5.62457 17.1436 2.98007 13.7088 2.98007C10.2722 2.98007 7.508 5.62476 7.508 8.83746L7.508 8.83865C7.49695 12.0403 10.2398 14.6826 13.6611 14.6949C13.6689 14.6949 13.6766 14.6951 13.6843 14.6957ZM14.1183 20.675L13.357 20.6754C13.3567 20.6754 13.3565 20.6754 13.3562 20.6754C10.5148 20.6884 7.31061 20.8684 4.82568 21.6714C3.58496 22.0723 2.55072 22.6202 1.82983 23.356C1.11774 24.0828 0.697205 25.0066 0.697205 26.2043C0.697205 27.515 1.22754 28.5022 2.08905 29.2627C2.96179 30.033 4.18109 30.575 5.54639 30.9511C8.2774 31.7033 11.4724 31.7614 13.2993 31.7655L13.7088 31.7659C13.7089 31.7659 13.7087 31.7659 13.7088 31.7659C16.5732 31.7659 19.8661 31.6123 22.4341 30.8183C23.7165 30.4218 24.79 29.8737 25.5393 29.1302C26.2793 28.396 26.717 27.4584 26.717 26.2363C26.717 24.9254 26.1868 23.9383 25.3256 23.1778C24.4531 22.4075 23.2343 21.8656 21.8694 21.4894C19.1395 20.7372 15.9452 20.6791 14.1183 20.675C14.118 20.675 14.1185 20.675 14.1183 20.675ZM13.3552 19.9782L14.1199 19.9778C15.9454 19.9819 19.2245 20.0375 22.0546 20.8173C23.4698 21.2073 24.8027 21.786 25.7871 22.6552C26.7827 23.5343 27.4142 24.7056 27.4142 26.2363C27.4142 27.6486 26.899 28.7631 26.0304 29.6251C25.1711 30.4778 23.9803 31.0699 22.6401 31.4843C19.963 32.3121 16.5775 32.4631 13.7088 32.4631L13.2983 32.4627C11.4727 32.4586 8.19208 32.4031 5.36127 31.6232C3.94568 31.2333 2.61237 30.6545 1.62769 29.7853C0.631775 28.9062 0 27.7349 0 26.2043C0 24.8211 0.494141 23.7231 1.33185 22.8681C2.16077 22.0219 3.31146 21.428 4.61133 21.0079C7.20721 20.1691 10.506 19.9912 13.3539 19.9782L13.3552 19.9782ZM5.49194 23.266C7.35382 22.6678 10.1052 22.3754 13.7088 22.3754C17.3117 22.3754 20.0626 22.6705 21.9243 23.2745C23.7707 23.8734 24.8842 24.8323 24.8842 26.2363C24.8842 27.6316 23.7679 28.5816 21.9233 29.1745C20.0621 29.7728 17.3116 30.0651 13.7088 30.0651C10.105 30.0651 7.35333 29.7699 5.49103 29.166C3.64417 28.5671 2.53003 27.6083 2.53003 26.2043C2.53003 24.8088 3.64685 23.8588 5.49194 23.266ZM5.7052 23.9298C3.93195 24.4995 3.22723 25.2897 3.22723 26.2043C3.22723 27.131 3.93475 27.9284 5.70612 28.5029C7.46222 29.0723 10.1256 29.3679 13.7088 29.3679C17.2913 29.3679 19.9542 29.0751 21.71 28.5108C23.4825 27.941 24.1871 27.1509 24.1871 26.2363C24.1871 25.3094 23.4798 24.5121 21.7091 23.9377C19.9536 23.3682 17.2911 23.0726 13.7088 23.0726C10.1255 23.0726 7.46173 23.3654 5.7052 23.9298Z" fill="#000000"/>
	<defs/>
</svg>
